<svg xmlns="http://www.w3.org/2000/svg" width="1011.8" height="73.4" viewBox="0 0 1011.8 73.4">
  <style>
    .st0{fill:#FFFFFF;}
  </style>
  <path class="st0" d="M371.1 20.7h9.4L369.6 1.6h-12.8v70.2h14.3m47.7-70.2l-32.1 56.5 7.5 13.7 23.1-40.3v40.3h14.3V1.6M74 36.8c0 20.4-16.2 36.6-37 36.6S0 57.3 0 36.8C0 16.4 16.2 0 37 0s37 16.4 37 36.8zm-14.3 0c0-13.4-10-23.4-22.6-23.4s-22.6 10-22.6 23.4S24.5 60 37.1 60s22.6-9.8 22.6-23.2zm132.9 35h-11.9l-39-45.1v45.1h-14.3V1.6h11.9l38.9 46.3V1.6h14.3l.1 70.2zm109.9 0h-53.4V1.6h53.1v12.9h-38.9v15.8h35.8V43h-35.8v15.9h39.1v12.9h.1zm239.7 0h-53.4V1.6h53.1v12.9H503v15.8h35.9V43h-35.8v15.9h39.1v12.9zm87.4-57.3v57.3h-14.3V14.5h-23.4V1.6h61v12.9h-23.3zm136.8 57.3h-14.3V43h-33.5v28.8h-14.3V1.6h14.3v28.5h33.5V1.6h14.3v70.2zm127.4-35c0 20.4-16.2 36.6-37 36.6s-37-16.1-37-36.6c0-20.4 16.2-36.8 37-36.8s37 16.4 37 36.8zm-14.3 0c0-13.4-10-23.4-22.6-23.4s-22.6 10-22.6 23.4 10 23.2 22.6 23.2 22.6-9.8 22.6-23.2zm93.7-35.2c23.2 0 38.6 14.2 38.6 35.1s-15.4 35.1-38.6 35.1h-25.9V1.6h25.9zm0 57.3c14.6 0 24.2-8.6 24.2-22.2s-9.6-22.2-24.2-22.2h-11.6v44.4h11.6z"/>
</svg>
